D:\Junayed_Zibat\opencap-processing\Data\312d5121-d82d-4833-a1b5-4f6827ad0820\OpenSimData\Dynamics\walking\GRF_resultant_walking_walking_setup.mot
version=1
nRows=15
nColumns=19
inDegrees=yes
endheader 
time	ground_force_right_vx	ground_force_right_vy	ground_force_right_vz	ground_force_right_px	ground_force_right_py	ground_force_right_pz	ground_torque_right_x	ground_torque_right_y	ground_torque_right_z	ground_force_left_vx	ground_force_left_vy	ground_force_left_vz	ground_force_left_px	ground_force_left_py	ground_force_left_pz	ground_torque_left_x	ground_torque_left_y	ground_torque_left_z	
          3.10000000	        -15.62790083	         23.10003132	         17.72820697	          1.04047563	          0.00000000	         -0.07679885	          0.00000000	          0.00000199	          0.00000000	         64.60318504	        918.03929507	         66.60344566	          0.72778501	          0.00000000	         -0.40146247	          0.00000000	         -7.32591111	          0.00000000	
          3.11000000	         -3.24655119	         44.68505396	         42.66551610	          1.04284117	          0.00000000	         -0.07882758	          0.00000000	          0.00000740	          0.00000000	         63.61992492	        909.82511760	         61.46289734	          0.73319868	          0.00000000	         -0.40178980	          0.00000000	         -6.20797147	          0.00000000	
          3.12000000	         39.76129765	         69.20391654	         53.14905422	          1.04428864	          0.00000000	         -0.08130854	          0.00000000	          0.00003100	          0.00000000	         59.73493695	        905.14372388	         52.89874509	          0.73886514	          0.00000000	         -0.40207458	          0.00000000	         -4.91892512	          0.00000000	
          3.13000000	         71.30721719	         88.48073134	         49.11142601	          1.04380717	          0.00000000	         -0.08384831	          0.00000000	          0.00049529	          0.00000000	         55.79360635	        901.07213352	         42.48858714	          0.74438796	          0.00000000	         -0.40218370	          0.00000000	         -3.66633321	          0.00000000	
          3.14000000	         85.42111819	         99.34937066	         47.25946172	          1.04241045	          0.00000000	         -0.08596620	          0.00000000	          0.00482936	          0.00000000	         53.37083695	        895.72674158	         32.33753646	          0.74934089	          0.00000000	         -0.40204685	          0.00000000	         -2.52605821	          0.00000000	
          3.15000000	         88.69543873	        103.40578407	         47.93741382	          1.04197131	          0.00000000	         -0.08828331	          0.00000000	          0.03293861	          0.00000000	         52.92006091	        887.09662250	         22.72696564	          0.75382759	          0.00000000	         -0.40177829	          0.00000000	         -1.44046115	          0.00000000	
          3.16000000	         87.38559924	        105.03134900	         50.66517582	          1.04538241	          0.00000000	         -0.09185379	          0.00000000	          0.13530976	          0.00000000	         53.95059177	        874.35161813	         13.15806822	          0.75798995	          0.00000000	         -0.40153231	          0.00000000	         -0.36656225	          0.00000000	
          3.17000000	         84.85373617	        107.45452710	         55.83319061	          1.05368652	          0.00000000	         -0.09689449	          0.00000000	          0.33202552	          0.00000000	         54.34757076	        856.43301219	          3.01865538	          0.76203179	          0.00000000	         -0.40142256	          0.00000000	          0.71552039	          0.00000000	
          3.18000000	         93.60244823	        125.63853009	         67.96113758	          1.07777094	          0.00000000	         -0.10687443	          0.00000000	          0.82337125	          0.00000000	         54.26198872	        830.72508581	         -8.52721067	          0.76626321	          0.00000000	         -0.40151074	          0.00000000	          1.71664232	          0.00000000	
          3.19000000	         90.49627835	        158.17555307	         79.17919258	          1.10528619	          0.00000000	         -0.11704826	          0.00000000	          2.42251062	          0.00000000	         50.32148963	        796.44285718	        -21.81212389	          0.77082817	          0.00000000	         -0.40190047	          0.00000000	          2.52508029	          0.00000000	
          3.20000000	         71.80636585	        193.16053168	         77.88412588	          1.12743678	          0.00000000	         -0.12444802	          0.00000000	          4.20900555	          0.00000000	         47.78448107	        749.44340701	        -35.51348619	          0.77594240	          0.00000000	         -0.40268330	          0.00000000	          2.89447602	          0.00000000	
          3.21000000	         46.37084494	        237.48182230	         69.22216812	          1.14877820	          0.00000000	         -0.13003826	          0.00000000	          5.63054231	          0.00000000	         45.44425716	        692.24635789	        -47.08008755	          0.78145801	          0.00000000	         -0.40394313	          0.00000000	          2.71968411	          0.00000000	
          3.22000000	         28.54906560	        273.00282143	         60.20774991	          1.16333443	          0.00000000	         -0.13358037	          0.00000000	          6.05794364	          0.00000000	         42.67793032	        624.92155737	        -55.69163583	          0.78737443	          0.00000000	         -0.40567459	          0.00000000	          1.99100268	          0.00000000	
          3.23000000	         12.71381855	        293.48498456	         54.68357850	          1.17265753	          0.00000000	         -0.13584056	          0.00000000	          5.87476490	          0.00000000	         39.07111234	        548.79314976	        -62.13475287	          0.79370143	          0.00000000	         -0.40764597	          0.00000000	          0.82782340	          0.00000000	
          3.24000000	          5.76042949	        303.20535586	         49.62436251	          1.17900942	          0.00000000	         -0.13742617	          0.00000000	          5.35498012	          0.00000000	         35.95123980	        481.98132703	        -64.30202239	          0.79824989	          0.00000000	         -0.40889128	          0.00000000	         -0.02043308	          0.00000000	
